<svg xmlns="http://www.w3.org/2000/svg" version="1.1" xmlns:xlink="http://www.w3.org/1999/xlink" xmlns:svgjs="http://svgjs.dev/svgjs" width="1500" height="295" viewBox="0 0 1500 295"><g transform="matrix(1,0,0,1,-0.9087081872037288,0.6330029516520028)"><svg viewBox="0 0 396 78" data-background-color="#e5f141" preserveAspectRatio="xMidYMid meet" height="295" width="1500" xmlns="http://www.w3.org/2000/svg" xmlns:xlink="http://www.w3.org/1999/xlink"><g id="tight-bounds" transform="matrix(1,0,0,1,0.23989896142177258,-0.16737027196222698)"><svg viewBox="0 0 395.52 78.33474054392445" height="78.33474054392445" width="395.52"><g><svg viewBox="0 0 557.8527285127958 110.48556014808402" height="78.33474054392445" width="395.52"><g><rect width="6.712149320652418" height="110.48556014808402" x="138.0495076721109" y="0" fill="#fa0c74" opacity="1" stroke-width="0" stroke="transparent" fill-opacity="1" class="rect-qz-0" data-fill-palette-color="secondary" rx="1%" id="qz-0" data-palette-color="#fa0c74"></rect></g><g transform="matrix(1,0,0,1,162.33272851279585,0.27483970186089834)"><svg viewBox="0 0 395.52 109.93588074436222" height="109.93588074436222" width="395.52"><g id="textblocktransform"><svg viewBox="0 0 395.52 109.93588074436222" height="109.93588074436222" width="395.52" id="textblock"><g><svg viewBox="0 0 395.52 74.42972398732826" height="74.42972398732826" width="395.52"><g transform="matrix(1,0,0,1,0,0)"><svg width="395.52" viewBox="2.2 -35.86 195.4498591570065 36.47" height="74.42972398732826" data-palette-color="#fa0c74"><g transform="matrix(1,0,0,1,0,0)"><g><svg width="4.782943223129056" viewBox="3.16 -36.36 28.68 36.36" height="6.065305090382852" data-palette-color="#fa0c74" id="scriptelement" x="189.33123754544195" y="-32.96550254519143"><path d="M10.85 0L3.16 0 3.16-36.36 17.51-36.36Q21.63-36.36 24.55-34.9 27.47-33.43 29-30.76 30.54-28.09 30.54-24.49L30.54-24.49Q30.54-20.86 28.98-18.26 27.41-15.66 24.46-14.28 21.5-12.89 17.31-12.89L17.31-12.89 7.71-12.89 7.71-19.07 16.07-19.07Q18.27-19.07 19.73-19.67 21.18-20.28 21.9-21.48 22.62-22.69 22.62-24.49L22.62-24.49Q22.62-26.3 21.9-27.54 21.18-28.78 19.72-29.43 18.25-30.08 16.03-30.08L16.03-30.08 10.85-30.08 10.85 0ZM14.51-16.55L22.8-16.55 31.84 0 23.35 0 14.51-16.55Z" opacity="1" transform="matrix(1,0,0,1,0,0)" fill="#fa0c74" class="undefined-123" data-fill-palette-color="primary" id="yy-123"></path></svg></g></g><path d="M185.796-29.933C185.796-33.206 188.449-35.86 191.723-35.86 194.996-35.86 197.65-33.206 197.65-29.933 197.65-26.659 194.996-24.006 191.723-24.006 188.449-24.006 185.796-26.659 185.796-29.933ZM191.723-24.558C194.691-24.558 197.097-26.965 197.097-29.933 197.097-32.901 194.691-35.307 191.723-35.307 188.755-35.307 186.348-32.901 186.348-29.933 186.348-26.965 188.755-24.558 191.723-24.558Z" fill="#fa0c74" id="scriptcircle" data-fill-palette-color="primary"></path><g class="wordmark-text-0" data-fill-palette-color="primary" id="text-0"><path d="M18.92 0.61L18.92 0.61Q13.84 0.61 10.08-1.34 6.32-3.3 4.26-7.23 2.2-11.16 2.2-17.04L2.2-17.04Q2.2-26.39 6.76-30.99 11.33-35.6 19.48-35.6L19.48-35.6Q27.12-35.6 31.57-31.09 36.01-26.59 36.01-17.75L36.01-17.75Q36.01-11.5 33.94-7.43 31.86-3.37 28.03-1.38 24.19 0.61 18.92 0.61ZM19.07-5.98L19.07-5.98Q23.46-5.98 25.59-9.13 27.71-12.28 27.71-17.31L27.71-17.31Q27.71-23.14 25.71-26.07 23.71-29 19.26-29L19.26-29Q10.5-29 10.5-17.46L10.5-17.46Q10.5-12.3 12.61-9.14 14.72-5.98 19.07-5.98ZM49.56-25.29L49.56-1.29Q49.56-0.56 49.28-0.28 49 0 48.29 0L48.29 0 43.38 0Q42.7 0 42.4-0.28 42.11-0.56 42.11-1.29L42.11-1.29 42.11-32.23Q42.11-33.67 42.67-34.34 43.23-35.01 44.65-35.01L44.65-35.01 46.92-35.01Q48.17-35.01 49.28-34.68 50.39-34.35 51.65-33.2 52.9-32.06 54.58-29.65 56.25-27.25 58.62-23.1L58.62-23.1Q60.89-19.14 62.27-16.77 63.64-14.4 64.4-13.16 65.16-11.91 65.54-11.38 65.92-10.84 66.16-10.5L66.16-10.5 66.16-31.1Q66.16-31.81 66.38-32.18L66.38-32.18Q67.43-33.79 69.28-35.57L69.28-35.57Q69.65-35.86 69.89-35.86L69.89-35.86Q70.16-35.86 70.48-35.57L70.48-35.57Q71.48-34.64 72.18-33.8 72.87-32.96 73.39-32.18L73.39-32.18Q73.61-31.79 73.61-31.1L73.61-31.1 73.61-2.03Q73.61-0.93 73.19-0.46 72.78 0 71.68 0L71.68 0 69.33 0Q68.28 0 67.19-0.35 66.09-0.71 64.69-1.97 63.3-3.22 61.4-5.88 59.49-8.54 56.81-13.16L56.81-13.16Q54.54-17.09 53.18-19.41 51.83-21.73 51.12-22.91 50.41-24.1 50.1-24.57 49.78-25.05 49.56-25.29L49.56-25.29ZM99.58 0L87.45 0Q84.93 0 83.63-0.63 82.32-1.27 81.87-2.71 81.42-4.15 81.42-6.54L81.42-6.54 81.42-31.1Q81.42-31.81 81.66-32.18L81.66-32.18Q82.76-33.79 84.74-35.57L84.74-35.57Q85.1-35.86 85.37-35.86L85.37-35.86Q85.66-35.86 85.98-35.57L85.98-35.57Q87.06-34.64 87.79-33.8 88.52-32.96 89.06-32.18L89.06-32.18Q89.3-31.79 89.3-31.1L89.3-31.1 89.3-9.45Q89.3-7.81 89.89-7.1 90.47-6.4 92.08-6.4L92.08-6.4 99.58-6.42Q100.17-6.42 100.46-6.23L100.46-6.23Q101.09-5.79 101.78-5.18 102.46-4.57 103.22-3.71L103.22-3.71Q103.46-3.39 103.46-3.2L103.46-3.2Q103.46-2.98 103.22-2.71L103.22-2.71Q102.46-1.86 101.78-1.25 101.09-0.63 100.46-0.2L100.46-0.2Q100.12 0 99.58 0L99.58 0ZM114.76-31.1L114.76-1.29Q114.76-0.56 114.46-0.28 114.15 0 113.42 0L113.42 0 108.22 0Q107.49 0 107.18-0.28 106.88-0.56 106.88-1.29L106.88-1.29 106.88-31.1Q106.88-31.81 107.12-32.18L107.12-32.18Q108.22-33.79 110.2-35.57L110.2-35.57Q110.56-35.86 110.83-35.86L110.83-35.86Q111.13-35.86 111.44-35.57L111.44-35.57Q112.52-34.64 113.25-33.8 113.98-32.96 114.52-32.18L114.52-32.18Q114.76-31.79 114.76-31.1L114.76-31.1ZM130.02-25.29L130.02-1.29Q130.02-0.56 129.74-0.28 129.46 0 128.75 0L128.75 0 123.84 0Q123.16 0 122.87-0.28 122.57-0.56 122.57-1.29L122.57-1.29 122.57-32.23Q122.57-33.67 123.13-34.34 123.7-35.01 125.11-35.01L125.11-35.01 127.38-35.01Q128.63-35.01 129.74-34.68 130.85-34.35 132.11-33.2 133.36-32.06 135.04-29.65 136.71-27.25 139.08-23.1L139.08-23.1Q141.35-19.14 142.73-16.77 144.11-14.4 144.86-13.16 145.62-11.91 146-11.38 146.38-10.84 146.62-10.5L146.62-10.5 146.62-31.1Q146.62-31.81 146.84-32.18L146.84-32.18Q147.89-33.79 149.75-35.57L149.75-35.57Q150.11-35.86 150.36-35.86L150.36-35.86Q150.62-35.86 150.94-35.57L150.94-35.57Q151.94-34.64 152.64-33.8 153.33-32.96 153.85-32.18L153.85-32.18Q154.07-31.79 154.07-31.1L154.07-31.1 154.07-2.03Q154.07-0.93 153.65-0.46 153.24 0 152.14 0L152.14 0 149.79 0Q148.74 0 147.65-0.35 146.55-0.71 145.16-1.97 143.76-3.22 141.86-5.88 139.96-8.54 137.27-13.16L137.27-13.16Q135-17.09 133.64-19.41 132.29-21.73 131.58-22.91 130.87-24.1 130.56-24.57 130.24-25.05 130.02-25.29L130.02-25.29ZM180.19 0L167.91 0Q165.39 0 164.09-0.63 162.78-1.27 162.33-2.71 161.88-4.15 161.88-6.54L161.88-6.54 161.88-28.47Q161.88-30.91 162.33-32.34 162.78-33.76 164.09-34.39 165.39-35.01 167.91-35.01L167.91-35.01 179.38-35.01Q179.97-35.01 180.26-34.81L180.26-34.81Q180.9-34.38 181.58-33.76 182.26-33.15 183.02-32.3L183.02-32.3Q183.26-31.98 183.26-31.79L183.26-31.79Q183.26-31.57 183.02-31.3L183.02-31.3Q182.26-30.44 181.58-29.83 180.9-29.22 180.26-28.78L180.26-28.78Q179.92-28.59 179.38-28.59L179.38-28.59 172.55-28.59Q170.93-28.59 170.35-27.91 169.76-27.22 169.76-25.56L169.76-25.56 169.76-20.83 178.53-20.83Q179.11-20.83 179.41-20.63L179.41-20.63Q180.04-20.19 180.72-19.58 181.41-18.97 182.17-18.12L182.17-18.12Q182.41-17.8 182.41-17.6L182.41-17.6Q182.41-17.38 182.17-17.11L182.17-17.11Q181.41-16.26 180.72-15.65 180.04-15.04 179.41-14.6L179.41-14.6Q179.06-14.4 178.53-14.4L178.53-14.4 169.76-14.4 169.76-9.47Q169.76-7.84 170.35-7.13 170.93-6.42 172.55-6.42L172.55-6.42 180.19-6.42Q180.77-6.42 181.07-6.23L181.07-6.23Q181.7-5.79 182.38-5.18 183.07-4.57 183.83-3.71L183.83-3.71Q184.07-3.39 184.07-3.2L184.07-3.2Q184.07-2.98 183.83-2.71L183.83-2.71Q183.07-1.86 182.38-1.25 181.7-0.63 181.07-0.2L181.07-0.2Q180.72 0 180.19 0L180.19 0Z" fill="#fa0c74" data-fill-palette-color="primary"></path></g></svg></g></svg></g><g transform="matrix(1,0,0,1,48.88693124546593,92.00079550736076)"><svg viewBox="0 0 241.26719999999997 17.93508523700146" height="17.93508523700146" width="241.26719999999997"><g transform="matrix(1,0,0,1,0,0)"><svg width="241.26719999999997" viewBox="3.56 -35.99 584.5600000000001 43.46" height="17.93508523700146" data-palette-color="#fa0c74"><path d="M37.45-16.82L37.45-16.82 37.45-16.36Q37.4-14.31 37.02-12.11 36.65-9.91 35.96-7.71 35.28-5.52 34.33-3.37 33.37-1.22 32.19 0.74 31.01 2.71 29.64 4.43 28.27 6.15 26.76 7.47L26.76 7.47 23.12 5.37Q23.97 3.93 24.67 2.23 25.37 0.54 25.93-1.32 26.49-3.17 26.89-5.13 27.29-7.08 27.56-9.01 27.83-10.94 27.97-12.81 28.1-14.67 28.1-16.36L28.1-16.36Q28.1-17.68 28.09-19.35 28.08-21.02 27.89-22.75 27.71-24.49 27.29-26.14 26.88-27.78 26.06-29.08 25.24-30.37 23.96-31.15 22.68-31.93 20.78-31.93L20.78-31.93Q19.09-31.93 17.88-31.36 16.67-30.79 15.83-29.82 14.99-28.86 14.49-27.59 13.99-26.32 13.71-24.91 13.43-23.51 13.34-22.08 13.26-20.65 13.26-19.38L13.26-19.38 13.26-12.57 23.78-12.57 23.78-8.54 13.26-8.54 13.26 0 3.56 0 3.56-17.87Q3.56-21.7 4.79-25 6.01-28.3 8.24-30.73 10.47-33.15 13.61-34.53 16.75-35.91 20.61-35.91L20.61-35.91Q23.22-35.91 25.5-35.17 27.78-34.42 29.66-33.12 31.54-31.81 33.02-30.02 34.5-28.22 35.49-26.1 36.47-23.97 36.99-21.61 37.5-19.24 37.45-16.82ZM58.2-30.66L58.2 0 48.51 0 48.51-30.66 38.94-30.66 38.94-35.16 67.77-35.16 67.77-30.66 58.2-30.66ZM88.98-30.66L88.98 0 79.29 0 79.29-30.66 69.72-30.66 69.72-35.16 98.55-35.16 98.55-30.66 88.98-30.66ZM128.75-4.49L128.75 0 103.51 0 103.51-35.16 128.75-35.16 128.75-30.66 113.2-30.66 113.2-19.8 125.21-19.8 125.21-15.33 113.2-15.33 113.2-4.49 128.75-4.49ZM139.25-24.12L139.25 0 134.76 0 134.76-35.16 141.05-35.16 162.42-11.01 162.42-35.16 166.88-35.16 166.88 0 160.59 0 139.25-24.12ZM208.92-17.63L208.92-17.63Q208.92-15.06 208.24-12.76 207.56-10.45 206.32-8.5 205.09-6.54 203.38-4.97 201.67-3.39 199.61-2.29 197.55-1.2 195.19-0.6 192.83 0 190.34 0L190.34 0 174.84 0 174.84-35.16 190.34-35.16Q192.83-35.16 195.18-34.57 197.52-33.98 199.58-32.9 201.65-31.81 203.37-30.25 205.09-28.69 206.32-26.75 207.56-24.8 208.24-22.5 208.92-20.19 208.92-17.63ZM199.08-17.63L199.08-17.63Q199.08-20.48 198.39-23.06 197.69-25.63 196.23-27.59 194.76-29.54 192.5-30.69 190.25-31.84 187.1-31.84L187.1-31.84 184.53-31.84 184.53-3.42 187.1-3.42Q190.2-3.42 192.46-4.58 194.71-5.74 196.19-7.7 197.67-9.67 198.38-12.23 199.08-14.79 199.08-17.63ZM248.35-16.82L248.35-16.82 248.35-16.36Q248.3-14.31 247.92-12.11 247.54-9.91 246.86-7.71 246.18-5.52 245.22-3.37 244.27-1.22 243.09 0.74 241.9 2.71 240.54 4.43 239.17 6.15 237.66 7.47L237.66 7.47 234.02 5.37Q234.87 3.93 235.57 2.23 236.26 0.54 236.83-1.32 237.39-3.17 237.79-5.13 238.19-7.08 238.46-9.01 238.73-10.94 238.86-12.81 239-14.67 239-16.36L239-16.36Q239-17.68 238.99-19.35 238.97-21.02 238.79-22.75 238.61-24.49 238.19-26.14 237.78-27.78 236.96-29.08 236.14-30.37 234.86-31.15 233.58-31.93 231.67-31.93L231.67-31.93Q229.99-31.93 228.78-31.36 227.57-30.79 226.73-29.82 225.89-28.86 225.39-27.59 224.89-26.32 224.61-24.91 224.33-23.51 224.24-22.08 224.15-20.65 224.15-19.38L224.15-19.38 224.15-12.57 234.68-12.57 234.68-8.54 224.15-8.54 224.15 0 214.46 0 214.46-17.87Q214.46-21.7 215.68-25 216.9-28.3 219.14-30.73 221.37-33.15 224.51-34.53 227.65-35.91 231.5-35.91L231.5-35.91Q234.12-35.91 236.4-35.17 238.68-34.42 240.56-33.12 242.44-31.81 243.92-30.02 245.4-28.22 246.38-26.1 247.37-23.97 247.89-21.61 248.4-19.24 248.35-16.82ZM259.14-24.12L259.14 0 254.65 0 254.65-35.16 260.94-35.16 282.31-11.01 282.31-35.16 286.77-35.16 286.77 0 280.48 0 259.14-24.12ZM326.66-26.44L326.66-26.44 322.49-24.68Q322-26.27 321.18-27.59 320.37-28.91 319.23-29.85 318.1-30.79 316.65-31.31 315.21-31.84 313.51-31.84L313.51-31.84Q311.67-31.84 310.15-31.24 308.62-30.64 307.41-29.59 306.21-28.54 305.3-27.15 304.4-25.76 303.79-24.18 303.18-22.61 302.89-20.92 302.59-19.24 302.59-17.63L302.59-17.63Q302.59-15.06 303.19-12.52 303.79-9.99 305.09-7.96 306.4-5.93 308.48-4.68 310.55-3.42 313.51-3.42L313.51-3.42Q315.07-3.42 316.46-3.94 317.85-4.47 318.99-5.38 320.12-6.3 320.98-7.54 321.83-8.79 322.34-10.23L322.34-10.23 326.57-8.54Q325.64-6.23 324.03-4.48 322.42-2.73 320.35-1.59 318.29-0.44 315.93 0.13 313.58 0.71 311.19 0.71L311.19 0.71Q308.6 0.71 306.22 0.07 303.84-0.56 301.79-1.73 299.74-2.91 298.06-4.57 296.39-6.23 295.21-8.25 294.02-10.28 293.38-12.66 292.73-15.04 292.73-17.63L292.73-17.63Q292.73-20.21 293.38-22.6 294.02-24.98 295.21-27.01 296.39-29.05 298.06-30.71 299.74-32.37 301.79-33.54 303.84-34.72 306.22-35.35 308.6-35.99 311.19-35.99L311.19-35.99Q313.68-35.99 316.06-35.4 318.44-34.81 320.49-33.63 322.54-32.45 324.14-30.65 325.74-28.86 326.66-26.44ZM367.65-22.46L362.01 0 353.15 0 343.92-35.16 353.81-35.16 359.64-10.21 364.82-35.16 373.71-35.16 379.37-9.57 385.74-35.16 391.72-35.16 381.49 0 372.61 0 367.65-22.46ZM421.95-4.49L421.95 0 396.7 0 396.7-35.16 421.95-35.16 421.95-30.66 406.39-30.66 406.39-19.8 418.41-19.8 418.41-15.33 406.39-15.33 406.39-4.49 421.95-4.49ZM460.32-9.55L460.32-9.55Q460.32-8.06 459.83-6.76 459.35-5.47 458.49-4.41 457.64-3.34 456.5-2.51 455.37-1.68 454.06-1.12 452.75-0.56 451.36-0.28 449.97 0 448.63 0L448.63 0 427.95 0 427.95-35.16 446.85-35.16Q448.09-35.16 449.46-34.97 450.82-34.79 452.13-34.4 453.44-34.01 454.62-33.37 455.8-32.74 456.7-31.82 457.59-30.91 458.11-29.71 458.64-28.52 458.64-26.98L458.64-26.98Q458.64-25.51 458.05-24.32 457.47-23.12 456.48-22.18 455.49-21.24 454.21-20.52 452.92-19.8 451.51-19.26L451.51-19.26Q453.29-18.77 454.89-17.97 456.49-17.16 457.7-15.99 458.91-14.82 459.61-13.22 460.32-11.62 460.32-9.55ZM448.8-26.12L448.8-26.12Q448.8-29.1 447.22-30.47 445.65-31.84 442.74-31.84L442.74-31.84 437.64-31.84 437.64-20.43 441.91-20.43Q443.23-20.43 444.48-20.76 445.72-21.09 446.69-21.79 447.65-22.49 448.22-23.56 448.8-24.63 448.8-26.12ZM450.51-10.16L450.51-10.16Q450.51-11.6 450.14-12.85 449.77-14.11 449.02-15.03 448.26-15.94 447.13-16.47 445.99-16.99 444.45-16.99L444.45-16.99 437.64-16.99 437.64-3.42 443.6-3.42Q445.09-3.42 446.36-3.91 447.63-4.39 448.55-5.27 449.48-6.15 449.99-7.4 450.51-8.64 450.51-10.16ZM513.73-16.82L513.73-16.82 513.73-16.36Q513.69-14.31 513.31-12.11 512.93-9.91 512.25-7.71 511.56-5.52 510.61-3.37 509.66-1.22 508.47 0.74 507.29 2.71 505.92 4.43 504.55 6.15 503.04 7.47L503.04 7.47 499.4 5.37Q500.26 3.93 500.95 2.23 501.65 0.54 502.21-1.32 502.77-3.17 503.18-5.13 503.58-7.08 503.85-9.01 504.12-10.94 504.25-12.81 504.38-14.67 504.38-16.36L504.38-16.36Q504.38-17.68 504.37-19.35 504.36-21.02 504.18-22.75 503.99-24.49 503.58-26.14 503.16-27.78 502.35-29.08 501.53-30.37 500.25-31.15 498.96-31.93 497.06-31.93L497.06-31.93Q495.38-31.93 494.17-31.36 492.96-30.79 492.12-29.82 491.27-28.86 490.77-27.59 490.27-26.32 489.99-24.91 489.71-23.51 489.63-22.08 489.54-20.65 489.54-19.38L489.54-19.38 489.54-12.57 500.06-12.57 500.06-8.54 489.54-8.54 489.54 0 479.85 0 479.85-17.87Q479.85-21.7 481.07-25 482.29-28.3 484.52-30.73 486.76-33.15 489.89-34.53 493.03-35.91 496.89-35.91L496.89-35.91Q499.5-35.91 501.78-35.17 504.07-34.42 505.95-33.12 507.83-31.81 509.3-30.02 510.78-28.22 511.77-26.1 512.76-23.97 513.27-21.61 513.78-19.24 513.73-16.82ZM529.72-13.13L529.72 0 520.03 0 520.03-35.16 539.02-35.16Q541.49-35.16 543.75-34.5 546.01-33.84 547.74-32.51 549.47-31.18 550.51-29.16 551.55-27.15 551.55-24.44L551.55-24.44Q551.55-22.73 551.06-21.23 550.57-19.73 549.71-18.48 548.84-17.24 547.67-16.24 546.5-15.23 545.1-14.55 543.71-13.87 542.16-13.5 540.61-13.13 539.02-13.13L539.02-13.13 529.72-13.13ZM541.73-24.44L541.73-24.44Q541.73-27.83 540.01-29.77 538.29-31.71 534.83-31.71L534.83-31.71 529.72-31.71 529.72-16.46 534.83-16.46Q536.68-16.46 537.99-17.05 539.29-17.65 540.12-18.73 540.95-19.8 541.34-21.25 541.73-22.71 541.73-24.44ZM566.29-13.13L566.29 0 556.6 0 556.6-35.16 575.59-35.16Q578.06-35.16 580.32-34.5 582.58-33.84 584.31-32.51 586.04-31.18 587.08-29.16 588.12-27.15 588.12-24.44L588.12-24.44Q588.12-22.73 587.63-21.23 587.14-19.73 586.28-18.48 585.41-17.24 584.24-16.24 583.07-15.23 581.67-14.55 580.28-13.87 578.73-13.5 577.18-13.13 575.59-13.13L575.59-13.13 566.29-13.13ZM578.3-24.44L578.3-24.44Q578.3-27.83 576.58-29.77 574.86-31.71 571.4-31.71L571.4-31.71 566.29-31.71 566.29-16.46 571.4-16.46Q573.25-16.46 574.56-17.05 575.86-17.65 576.69-18.73 577.52-19.8 577.91-21.25 578.3-22.71 578.3-24.44Z" opacity="1" transform="matrix(1,0,0,1,0,0)" fill="#fa0c74" class="slogan-text-1" data-fill-palette-color="secondary" id="text-1"></path></svg></g></svg></g></svg></g></svg></g><g transform="matrix(1,0,0,1,0,5.105422301768158)"><svg viewBox="0 0 120.4784361520784 100.2747155445477" height="100.2747155445477" width="120.4784361520784"><g><svg xmlns="http://www.w3.org/2000/svg" xmlns:xlink="http://www.w3.org/1999/xlink" version="1.1" x="8" y="0" viewBox="7.5 9.21 85 81.57999999999998" style="enable-background:new 0 0 100 100;" xml:space="preserve" height="100.2747155445477" width="104.4784361520784" class="icon-icon-0" data-fill-palette-color="accent" id="icon-0"><path d="M12.27 16.83v15.28c0 1.62 1.31 2.93 2.93 2.93h31.83c1.62 0 2.93-1.31 2.93-2.93V16.83c0-1.62-1.31-2.93-2.93-2.93H15.2C13.58 13.9 12.27 15.22 12.27 16.83zM14.33 16.83c0-0.48 0.39-0.87 0.87-0.87h31.83c0.48 0 0.87 0.39 0.87 0.87v15.28c0 0.48-0.39 0.87-0.87 0.87H15.2c-0.48 0-0.87-0.39-0.87-0.87V16.83z" fill="#fa0c74" data-fill-palette-color="accent"></path><path d="M25.96 42.16c0-1.77-1.44-3.22-3.22-3.22-1.77 0-3.22 1.44-3.22 3.22 0 1.42 0.93 2.63 2.22 3.06-1.28 0.42-2.22 1.63-2.22 3.06 0 1.42 0.93 2.63 2.22 3.06-1.28 0.42-2.22 1.63-2.22 3.06 0 1.42 0.93 2.63 2.22 3.06-1.28 0.42-2.22 1.63-2.22 3.06 0 1.77 1.44 3.22 3.22 3.22 1.77 0 3.22-1.44 3.22-3.22 0-1.42-0.93-2.64-2.22-3.06 1.28-0.42 2.22-1.63 2.22-3.06 0-1.42-0.93-2.63-2.22-3.06 1.28-0.42 2.22-1.63 2.22-3.06 0-1.42-0.93-2.63-2.22-3.06C25.03 44.8 25.96 43.59 25.96 42.16zM23.9 60.5c0 0.64-0.52 1.16-1.16 1.16-0.64 0-1.16-0.52-1.16-1.16 0-0.64 0.52-1.16 1.16-1.16C23.38 59.34 23.9 59.86 23.9 60.5zM23.9 54.39c0 0.64-0.52 1.16-1.16 1.16-0.64 0-1.16-0.52-1.16-1.16 0-0.64 0.52-1.16 1.16-1.16C23.38 53.23 23.9 53.75 23.9 54.39zM23.9 48.28c0 0.64-0.52 1.16-1.16 1.16-0.64 0-1.16-0.52-1.16-1.16 0-0.64 0.52-1.16 1.16-1.16C23.38 47.12 23.9 47.64 23.9 48.28zM22.74 43.32c-0.64 0-1.16-0.52-1.16-1.16 0-0.64 0.52-1.16 1.16-1.16 0.64 0 1.16 0.52 1.16 1.16C23.9 42.8 23.38 43.32 22.74 43.32z" fill="#fa0c74" data-fill-palette-color="accent"></path><path d="M33.68 42.16c0-1.77-1.44-3.22-3.22-3.22-1.77 0-3.22 1.44-3.22 3.22 0 1.42 0.93 2.63 2.21 3.06-1.28 0.42-2.21 1.63-2.21 3.06 0 1.42 0.93 2.63 2.21 3.06-1.28 0.42-2.21 1.63-2.21 3.06 0 1.42 0.93 2.63 2.22 3.06-1.28 0.42-2.22 1.63-2.22 3.06 0 1.77 1.44 3.22 3.22 3.22 1.77 0 3.22-1.44 3.22-3.22 0-1.42-0.93-2.64-2.22-3.06 1.28-0.42 2.22-1.63 2.22-3.06 0-1.42-0.93-2.63-2.22-3.06 1.28-0.42 2.22-1.63 2.22-3.06 0-1.42-0.93-2.63-2.22-3.06C32.75 44.8 33.68 43.59 33.68 42.16zM31.62 60.5c0 0.64-0.52 1.16-1.16 1.16-0.64 0-1.16-0.52-1.16-1.16 0-0.64 0.52-1.16 1.16-1.16C31.1 59.34 31.62 59.86 31.62 60.5zM31.62 54.39c0 0.64-0.52 1.16-1.16 1.16-0.64 0-1.16-0.52-1.16-1.16 0-0.64 0.52-1.16 1.16-1.16C31.1 53.23 31.62 53.75 31.62 54.39zM31.62 48.28c0 0.64-0.52 1.16-1.16 1.16-0.64 0-1.16-0.52-1.16-1.16 0-0.64 0.52-1.16 1.16-1.16C31.1 47.12 31.62 47.64 31.62 48.28zM30.46 43.32c-0.64 0-1.16-0.52-1.16-1.16 0-0.64 0.52-1.16 1.16-1.16 0.64 0 1.16 0.52 1.16 1.16C31.62 42.8 31.1 43.32 30.46 43.32z" fill="#fa0c74" data-fill-palette-color="accent"></path><path d="M41.4 42.16c0-1.77-1.44-3.22-3.22-3.22s-3.22 1.44-3.22 3.22c0 1.42 0.93 2.63 2.22 3.06-1.28 0.42-2.22 1.63-2.22 3.06 0 1.42 0.93 2.63 2.22 3.06-1.28 0.42-2.22 1.63-2.22 3.06 0 1.42 0.93 2.64 2.22 3.06-1.28 0.42-2.22 1.63-2.22 3.06 0 1.77 1.44 3.22 3.22 3.22s3.22-1.44 3.22-3.22c0-1.42-0.93-2.64-2.22-3.06 1.28-0.42 2.22-1.63 2.22-3.06 0-1.42-0.93-2.63-2.22-3.06 1.28-0.42 2.22-1.63 2.22-3.06 0-1.42-0.93-2.63-2.22-3.06C40.46 44.8 41.4 43.59 41.4 42.16zM39.34 60.5c0 0.64-0.52 1.16-1.16 1.16-0.64 0-1.16-0.52-1.16-1.16 0-0.64 0.52-1.16 1.16-1.16C38.82 59.34 39.34 59.86 39.34 60.5zM39.34 54.39c0 0.64-0.52 1.16-1.16 1.16-0.64 0-1.16-0.52-1.16-1.16 0-0.64 0.52-1.16 1.16-1.16C38.82 53.23 39.34 53.75 39.34 54.39zM39.34 48.28c0 0.64-0.52 1.16-1.16 1.16-0.64 0-1.16-0.52-1.16-1.16 0-0.64 0.52-1.16 1.16-1.16C38.82 47.12 39.34 47.64 39.34 48.28zM38.18 43.32c-0.64 0-1.16-0.52-1.16-1.16 0-0.64 0.52-1.16 1.16-1.16 0.64 0 1.16 0.52 1.16 1.16C39.34 42.8 38.82 43.32 38.18 43.32z" fill="#fa0c74" data-fill-palette-color="accent"></path><path d="M49.11 42.16c0-1.77-1.44-3.22-3.22-3.22s-3.22 1.44-3.22 3.22c0 1.42 0.93 2.63 2.22 3.06-1.28 0.42-2.22 1.63-2.22 3.06 0 1.42 0.93 2.63 2.22 3.06-1.28 0.42-2.22 1.63-2.22 3.06 0 1.42 0.93 2.64 2.22 3.06-1.28 0.42-2.22 1.63-2.22 3.06 0 1.77 1.44 3.22 3.22 3.22s3.22-1.44 3.22-3.22c0-1.42-0.93-2.64-2.22-3.06 1.28-0.42 2.22-1.63 2.22-3.06 0-1.42-0.93-2.63-2.22-3.06 1.28-0.42 2.22-1.63 2.22-3.06 0-1.42-0.93-2.63-2.22-3.06C48.18 44.8 49.11 43.59 49.11 42.16zM47.06 60.5c0 0.64-0.52 1.16-1.16 1.16-0.64 0-1.16-0.52-1.16-1.16 0-0.64 0.52-1.16 1.16-1.16C46.54 59.34 47.06 59.86 47.06 60.5zM47.06 54.39c0 0.64-0.52 1.16-1.16 1.16-0.64 0-1.16-0.52-1.16-1.16 0-0.64 0.52-1.16 1.16-1.16C46.54 53.23 47.06 53.75 47.06 54.39zM47.06 48.28c0 0.64-0.52 1.16-1.16 1.16-0.64 0-1.16-0.52-1.16-1.16 0-0.64 0.52-1.16 1.16-1.16C46.54 47.12 47.06 47.64 47.06 48.28zM45.9 43.32c-0.64 0-1.16-0.52-1.16-1.16 0-0.64 0.52-1.16 1.16-1.16 0.64 0 1.16 0.52 1.16 1.16C47.06 42.8 46.54 43.32 45.9 43.32z" fill="#fa0c74" data-fill-palette-color="accent"></path><path d="M60.56 16.11h21.47c0.57 0 1.03-0.46 1.03-1.03s-0.46-1.03-1.03-1.03H60.56c-0.57 0-1.03 0.46-1.03 1.03S59.99 16.11 60.56 16.11z" fill="#fa0c74" data-fill-palette-color="accent"></path><path d="M60.56 18.79h21.47c0.57 0 1.03-0.46 1.03-1.03s-0.46-1.03-1.03-1.03H60.56c-0.57 0-1.03 0.46-1.03 1.03S59.99 18.79 60.56 18.79z" fill="#fa0c74" data-fill-palette-color="accent"></path><path d="M60.56 21.48h21.47c0.57 0 1.03-0.46 1.03-1.03s-0.46-1.03-1.03-1.03H60.56c-0.57 0-1.03 0.46-1.03 1.03S59.99 21.48 60.56 21.48z" fill="#fa0c74" data-fill-palette-color="accent"></path><path d="M82.03 24.16c0.57 0 1.03-0.46 1.03-1.03s-0.46-1.03-1.03-1.03H60.56c-0.57 0-1.03 0.46-1.03 1.03s0.46 1.03 1.03 1.03H82.03z" fill="#fa0c74" data-fill-palette-color="accent"></path><path d="M91.25 62.5c0-0.05 0-0.1 0-0.14V15.64c0-3.55-2.89-6.43-6.43-6.43H13.93c-3.55 0-6.43 2.89-6.43 6.43v46.71c0 3.55 2.89 6.43 6.43 6.43h48.72v8.86c0 0.15 0 0.31 0.01 0.46l0.27 2.27c0.17 0.82 0.42 1.61 0.75 2.39 0.66 1.57 1.61 2.97 2.82 4.18 1.21 1.21 2.61 2.16 4.18 2.82 1.62 0.69 3.34 1.03 5.12 1.03h3.55c1.77 0 3.5-0.35 5.12-1.03 1.57-0.66 2.97-1.61 4.18-2.82 1.21-1.21 2.16-2.61 2.82-4.18 0.69-1.62 1.03-3.34 1.03-5.12V65.27c0-0.99-0.39-1.92-1.08-2.62C91.36 62.6 91.31 62.54 91.25 62.5zM52.92 66.73H13.93c-2.41 0-4.38-1.96-4.38-4.38V15.64c0-2.41 1.96-4.38 4.38-4.38h38.99V66.73zM62.65 65.28v1.44h-7.67V11.26h29.84c2.41 0 4.38 1.96 4.38 4.38v45.95c-0.13-0.01-0.27-0.02-0.4-0.02-0.62 0-1.2 0.15-1.72 0.42-0.4-1.64-1.84-2.87-3.58-2.95V30.31c0-1.95-1.59-3.53-3.53-3.53H63.63c-1.95 0-3.53 1.59-3.53 3.53v29.78c0 1.76 1.29 3.22 2.98 3.49C62.8 64.08 62.65 64.67 62.65 65.28zM63.63 61.56c-0.81 0-1.48-0.66-1.48-1.48V30.31c0-0.81 0.66-1.48 1.48-1.48h16.34c0.81 0 1.48 0.66 1.48 1.48v29.21c-0.15 0.08-0.3 0.18-0.44 0.28l-0.04 0c-0.18-0.45-0.46-0.87-0.81-1.23-0.7-0.7-1.63-1.08-2.62-1.08-0.71 0-1.37 0.2-1.93 0.54v-0.78h3.21c1.25 0 2.26-1.01 2.26-2.26v-9c0-5.12-4.16-9.28-9.28-9.28-5.12 0-9.28 4.16-9.28 9.28v9c0 1.25 1.01 2.26 2.26 2.26h3.41v4.3H63.63zM75.55 41.69h-7.51c-1.46 0-2.64 1.18-2.64 2.64v7.66c0 1.46 1.18 2.64 2.64 2.64h0.15v0.57h-3.41c-0.11 0-0.2-0.09-0.2-0.2v-9c0-3.98 3.24-7.22 7.22-7.22 3.98 0 7.22 3.24 7.22 7.22v9c0 0.11-0.09 0.2-0.2 0.2H75.6v-0.57c1.43-0.02 2.59-1.2 2.59-2.64v-7.66C78.19 42.87 77.01 41.69 75.55 41.69zM68.04 52.57c-0.32 0-0.58-0.26-0.58-0.58v-7.66c0-0.32 0.26-0.58 0.58-0.58h7.51c0.32 0 0.58 0.26 0.58 0.58v7.66c0 0.3-0.24 0.56-0.53 0.58V51.8l0-1.88c0-0.52-0.11-1.02-0.31-1.48-0.18-0.42-0.45-0.81-0.78-1.14-0.7-0.7-1.63-1.08-2.62-1.08-1.52 0-2.83 0.92-3.4 2.23-0.2 0.45-0.31 0.95-0.31 1.48v2.65H68.04zM90.63 77.64c0 6.22-5.06 11.28-11.28 11.28H75.8c-5.85 0-10.68-4.48-11.23-10.19-0.04-0.36-0.05-0.72-0.05-1.09v-8.86-0.54-0.98-0.54-1.44c0-0.74 0.44-1.37 1.06-1.67h1.55c0.19 0.09 0.37 0.21 0.52 0.37 0.35 0.35 0.54 0.81 0.54 1.3v1.44 0.54 0.98 0.54 2.4c0 0.38 0.22 0.7 0.54 0.85 0.12 0.06 0.25 0.09 0.39 0.09 0.52 0 0.93-0.42 0.93-0.93v-2.4-0.54-0.98-0.54-3.11-0.54V62.1v-0.54-4.3-0.54-0.98V55.2v-0.57-0.54-0.98-0.54l0-1.66v-0.99c0-1.01 0.82-1.84 1.84-1.84 0.49 0 0.95 0.19 1.3 0.54 0.35 0.35 0.54 0.81 0.54 1.3v2.65 0.54 0.98 0.54 0.57 0.54 0.98 0.54 4.3 0.54 0.98 0.54 3.11 0.54 0.98 0.54 2.4c0 0.52 0.42 0.93 0.93 0.93h0.09c0.52 0 0.93-0.42 0.93-0.93v-2.4-0.54-0.98-0.54-3.11-0.54V62.1v-0.54-0.36c0-1.01 0.82-1.84 1.84-1.84 0.49 0 0.95 0.19 1.3 0.54 0.35 0.35 0.54 0.81 0.54 1.3v0.36 0.54 0.98 0.54 3.11 0.54 0.98 0.54 2.4c0 0.52 0.42 0.93 0.93 0.93h0.09c0.52 0 0.93-0.42 0.93-0.93v-2.4-0.54-0.98-0.54-3.38-0.11c0-0.18 0.03-0.36 0.07-0.52 0.01-0.02 0.02-0.05 0.02-0.07 0.19-0.55 0.63-0.99 1.19-1.16 0.17-0.05 0.36-0.08 0.55-0.08 0.03 0 0.06 0 0.08 0 0.46 0.02 0.89 0.21 1.21 0.54 0.35 0.35 0.54 0.81 0.54 1.3v3.49 0.54 0.98 0.54 2.4c0 0.52 0.42 0.93 0.93 0.93h0.09c0.52 0 0.93-0.42 0.93-0.93v-2.77-0.58-1.07-0.61-0.9c0-0.32 0.08-0.62 0.23-0.89 0.31-0.57 0.92-0.95 1.61-0.95 0.09 0 0.17 0.01 0.26 0.02 0.18 0.03 0.35 0.08 0.52 0.15 0.19 0.09 0.37 0.21 0.52 0.37 0.11 0.11 0.2 0.23 0.28 0.36 0.14 0.24 0.23 0.51 0.25 0.79 0 0.05 0.01 0.1 0.01 0.15L90.63 77.64z" fill="#fa0c74" data-fill-palette-color="accent"></path></svg></g></svg></g></svg></g><defs></defs></svg><rect width="395.52" height="78.33474054392445" fill="none" stroke="none" visibility="hidden"></rect></g></svg></g></svg>