<svg xmlns="http://www.w3.org/2000/svg" version="1.1" xmlns:xlink="http://www.w3.org/1999/xlink" xmlns:svgjs="http://svgjs.dev/svgjs" width="1500" height="1205" viewBox="0 0 1500 1205"><g transform="matrix(1,0,0,1,0,0.3984580210021704)"><svg viewBox="0 0 448 360" data-background-color="#ffa96a" preserveAspectRatio="xMidYMid meet" height="1205" width="1500" xmlns="http://www.w3.org/2000/svg" xmlns:xlink="http://www.w3.org/1999/xlink"><g id="tight-bounds" transform="matrix(1,0,0,1,0,-0.11904140046539169)"><svg viewBox="0 0 448 360" height="360" width="448"><g><svg></svg></g><g><svg viewBox="0 0 448 360" height="360" width="448"><g><path transform="translate(36.9151,-7.08178) scale(0.00624,0.00624)" d="M25167 8301c221 0 400 179 400 400 0 221-179 400-400 400h-3824l-2753 2753c-156 156-409 156-566 0-156-156-156-409 0-566l2188-2188h-6475c-1847 0-3071 431-3819 1301-760 885-1068 2254-1068 4110 0 11 0 22-1 33l34 5884 2356-2356c156-156 409-156 566 0 156 156 156 409 0 566l-2915 2915c33 5746 31 11443-2 17189 4087 4041 8117 8068 12157 12154h4070c221 0 400 179 400 400 0 221-179 400-400 400h-3279l4160 4208 1-1c1313 1313 2498 2062 3660 2151 1146 87 2316-474 3622-1779l4579-4579h-3323c-221 0-400-179-400-400 0-221 179-400 400-400h4123l2666-2666c156-156 409-156 566 0 156 156 156 409 0 566l-2101 2101h6475c1847 0 3071-431 3819-1301 760-885 1068-2254 1068-4110h2l-34-5917-2568 2568c-156 156-409 156-566 0-156-156-156-409 0-566l3127-3127c-33-5746-31-11443 2-17189-4087-4041-8117-8068-12157-12154h-4193c-221 0-400-179-400-400 0-221 179-400 400-400h3402l-4141-4189c-7-6-13-12-20-18-1313-1313-2498-2062-3660-2151-1146-87-2316 474-3622 1779l-4579 4579h3024zM13737 8301h7275l5144-5144c1483-1483 2856-2116 4247-2010 1374 104 2719 934 4167 2382 8 8 15 15 22 23l4695 4749h6977c2096 0 3515 524 4425 1583 898 1045 1261 2582 1261 4629 0 13-1 25-2 37l-36 6373 4559 4508 1-1c1448 1448 2278 2792 2382 4167 106 1391-528 2764-2010 4247l-4934 4934 38 6710h2c0 2047-364 3584-1261 4629-910 1059-2329 1583-4425 1583h-7275l-5144 5144c-1483 1483-2856 2116-4247 2010-1374-104-2719-934-4167-2382l1-1-4718-4772h-6977c-2096 0-3515-524-4425-1583-898-1045-1261-2582-1261-4629h2l37-6410-4537-4485c-8-7-16-14-23-22-1448-1448-2278-2792-2382-4167-106-1391 528-2764 2010-4247l4934-4934-38-6672c-1-12-2-25-2-37 0-2047 364-3584 1261-4629 910-1059 2329-1583 4425-1583zM8141 30000l-44-7653-4374 4374c-1305 1305-1866 2476-1779 3622 88 1162 838 2348 2151 3660 6 6 13 13 18 20l3983 3937 45-7961zM8882 39860l-32 5627h2c0 1857 308 3226 1068 4110 748 871 1972 1301 3819 1301h6186l-5380-5442-5662-5597zM46264 9101h-6186l5380 5442 5662 5597 32-5594c-1-11-1-22-1-33 0-1857-308-3226-1068-4110-748-871-1972-1301-3819-1301zM51906 22039l-45 7961 44 7653 4374-4374c1305-1305 1866-2476 1779-3622-88-1163-838-2348-2151-3660l1-1-4002-3956z" fill="#000000" fill-rule="nonzero" stroke="none" stroke-width="1" stroke-linecap="butt" stroke-linejoin="miter" stroke-miterlimit="10" stroke-dasharray="" stroke-dashoffset="0" font-family="none" font-weight="none" font-size="none" text-anchor="none" style="mix-blend-mode: normal" data-fill-palette-color="tertiary"></path></g><g transform="matrix(1,0,0,1,112,141.54717282008295)"><svg viewBox="0 0 224 76.90565435983413" height="76.90565435983413" width="224"><g><svg viewBox="0 0 353.8126571641421 121.47408000000001" height="76.90565435983413" width="224"><g transform="matrix(1,0,0,1,129.81265716414205,23.13707973181029)"><svg viewBox="0 0 224.00000000000003 75.19992053637944" height="75.19992053637944" width="224.00000000000003"><g id="textblocktransform"><svg viewBox="0 0 224.00000000000003 75.19992053637944" height="75.19992053637944" width="224.00000000000003" id="textblock"><g><svg viewBox="0 0 224.00000000000003 75.19992053637944" height="75.19992053637944" width="224.00000000000003"><g transform="matrix(1,0,0,1,0,0)"><svg width="224.00000000000003" viewBox="69.05999999999999 -36.01 294.95000000000005 96.02" height="75.19992053637944" data-palette-color="#0a681b"><svg></svg><svg></svg><g class="wordmark-text-0" data-fill-palette-color="primary" id="text-0"><path transform="translate(67.57,0)" d="M14.99-35.01h5.01l13.5 35.01h-5.01l-3.1-8.06h-15.8l-3.1 8.06h-5zM17.5-28.49l-6 15.43h11.96zM37.5-21.19v-4.81h6.35v-8.01h4.81v8.01h8.54v4.81h-8.54v16.38h8.54v4.81h-8.54c-0.653 0-1.273-0.127-1.86-0.38-0.587-0.253-1.1-0.593-1.54-1.02-0.44-0.433-0.783-0.943-1.03-1.53-0.253-0.587-0.38-1.213-0.38-1.88v0-16.38zM63.7-21.19v-4.81h6.34v-8.01h4.81v8.01h8.55v4.81h-8.55v16.38h8.55v4.81h-8.55c-0.647 0-1.263-0.127-1.85-0.38-0.587-0.253-1.1-0.593-1.54-1.02-0.44-0.433-0.787-0.943-1.04-1.53-0.253-0.587-0.38-1.213-0.38-1.88v0-16.38zM113.4-21.19v10.64h-17.21v5.74h17.21v4.81h-17.21c-0.653 0-1.27-0.127-1.85-0.38-0.587-0.253-1.097-0.593-1.53-1.02-0.433-0.433-0.777-0.943-1.03-1.53-0.247-0.587-0.37-1.213-0.37-1.88v0-16.38c0-0.667 0.123-1.293 0.37-1.88 0.253-0.587 0.597-1.097 1.03-1.53 0.433-0.427 0.943-0.767 1.53-1.02 0.58-0.253 1.197-0.38 1.85-0.38v0h12.4c0.667 0 1.293 0.127 1.88 0.38 0.587 0.253 1.097 0.593 1.53 1.02 0.433 0.433 0.773 0.943 1.02 1.53 0.253 0.587 0.38 1.213 0.38 1.88zM108.59-21.19h-12.4v5.83h12.4zM144.41-21.19v21.19h-4.81v-21.19h-13.4v21.19h-4.79v-26h4.79v4.59c0.033-0.633 0.18-1.233 0.44-1.8 0.26-0.56 0.603-1.047 1.03-1.46 0.433-0.413 0.933-0.74 1.5-0.98 0.573-0.233 1.187-0.35 1.84-0.35v0h8.59c0.667 0 1.293 0.127 1.88 0.38 0.587 0.253 1.097 0.593 1.53 1.02 0.427 0.433 0.767 0.943 1.02 1.53 0.253 0.587 0.38 1.213 0.38 1.88zM152.42-4.81v-16.38c0-0.667 0.127-1.293 0.38-1.88 0.247-0.587 0.587-1.097 1.02-1.53 0.433-0.427 0.943-0.767 1.53-1.02 0.587-0.253 1.203-0.38 1.85-0.38v0h13.41v-10.01h4.81v36.01h-4.81v-4.39c-0.053 0.6-0.217 1.167-0.49 1.7-0.28 0.54-0.633 1.01-1.06 1.41-0.433 0.4-0.927 0.713-1.48 0.94-0.553 0.227-1.14 0.34-1.76 0.34v0h-8.62c-0.647 0-1.263-0.127-1.85-0.38-0.587-0.253-1.097-0.593-1.53-1.02-0.433-0.433-0.773-0.943-1.02-1.53-0.253-0.587-0.38-1.213-0.38-1.88zM157.2-21.19v16.38h13.41v-16.38zM183.42-4.81v-6.54c0-0.667 0.127-1.29 0.38-1.87 0.253-0.58 0.597-1.09 1.03-1.53 0.427-0.44 0.933-0.783 1.52-1.03 0.587-0.253 1.207-0.38 1.86-0.38v0h12.4v-5.03h-15.7v-4.81h15.7c0.667 0 1.293 0.127 1.88 0.38 0.587 0.253 1.097 0.593 1.53 1.02 0.427 0.433 0.767 0.943 1.02 1.53 0.253 0.587 0.38 1.213 0.38 1.88v0 21.19h-4.81v-4.39c-0.047 0.6-0.21 1.167-0.49 1.7-0.273 0.54-0.627 1.01-1.06 1.41-0.433 0.4-0.927 0.713-1.48 0.94-0.553 0.227-1.137 0.34-1.75 0.34v0h-7.62c-0.653 0-1.273-0.127-1.86-0.38-0.587-0.253-1.093-0.593-1.52-1.02-0.433-0.433-0.777-0.943-1.03-1.53-0.253-0.587-0.38-1.213-0.38-1.88zM188.21-11.35v6.54h12.4v-6.54zM236.43-21.19v21.19h-4.81v-21.19h-13.41v21.19h-4.78v-26h4.78v4.59c0.033-0.633 0.18-1.233 0.44-1.8 0.26-0.56 0.607-1.047 1.04-1.46 0.433-0.413 0.933-0.74 1.5-0.98 0.573-0.233 1.183-0.35 1.83-0.35v0h8.6c0.667 0 1.293 0.127 1.88 0.38 0.587 0.253 1.093 0.593 1.52 1.02 0.433 0.433 0.777 0.943 1.03 1.53 0.253 0.587 0.38 1.213 0.38 1.88zM261.62-21.19h-12.4v16.38h12.4v-4.39h4.81v4.39c0 0.667-0.127 1.293-0.38 1.88-0.253 0.587-0.593 1.097-1.02 1.53-0.433 0.427-0.943 0.767-1.53 1.02-0.587 0.253-1.213 0.38-1.88 0.38v0h-12.4c-0.653 0-1.273-0.127-1.86-0.38-0.587-0.253-1.093-0.593-1.52-1.02-0.433-0.433-0.777-0.943-1.03-1.53-0.253-0.587-0.38-1.213-0.38-1.88v0-16.38c0-0.667 0.127-1.293 0.38-1.88 0.253-0.587 0.597-1.097 1.03-1.53 0.427-0.427 0.933-0.767 1.52-1.02 0.587-0.253 1.207-0.38 1.86-0.38v0h12.4c0.667 0 1.293 0.127 1.88 0.38 0.587 0.253 1.097 0.593 1.53 1.02 0.427 0.433 0.767 0.943 1.02 1.53 0.253 0.587 0.38 1.213 0.38 1.88v0 4.39h-4.81zM296.44-21.19v10.64h-17.22v5.74h17.22v4.81h-17.22c-0.647 0-1.263-0.127-1.85-0.38-0.587-0.253-1.097-0.593-1.53-1.02-0.427-0.433-0.767-0.943-1.02-1.53-0.253-0.587-0.38-1.213-0.38-1.88v0-16.38c0-0.667 0.127-1.293 0.38-1.88 0.253-0.587 0.593-1.097 1.02-1.53 0.433-0.427 0.943-0.767 1.53-1.02 0.587-0.253 1.203-0.38 1.85-0.38v0h12.41c0.667 0 1.293 0.127 1.88 0.38 0.58 0.253 1.087 0.593 1.52 1.02 0.433 0.433 0.777 0.943 1.03 1.53 0.253 0.587 0.38 1.213 0.38 1.88zM291.63-21.19h-12.41v5.83h12.41z" fill="#0a681b" fill-rule="nonzero" stroke="none" stroke-width="1" stroke-linecap="butt" stroke-linejoin="miter" stroke-miterlimit="10" stroke-dasharray="" stroke-dashoffset="0" font-family="none" font-weight="none" font-size="none" text-anchor="none" style="mix-blend-mode: normal" data-fill-palette-color="primary" opacity="1"></path><path transform="translate(107.52,49.51)" d="M16.99 0h-5.49l-10.01-35.01h5l7.77 27.86 7.74-27.86h5l7.74 27.86 7.76-27.86h5.01l-10.01 35.01h-5.49l-7.5-26.25zM73.51-21.19v10.64h-17.21v5.74h17.21v4.81h-17.21c-0.653 0-1.273-0.127-1.86-0.38-0.587-0.253-1.093-0.593-1.52-1.02-0.433-0.433-0.777-0.943-1.03-1.53-0.253-0.587-0.38-1.213-0.38-1.88v0-16.38c0-0.667 0.127-1.293 0.38-1.88 0.253-0.587 0.597-1.097 1.03-1.53 0.427-0.427 0.933-0.767 1.52-1.02 0.587-0.253 1.207-0.38 1.86-0.38v0h12.4c0.667 0 1.293 0.127 1.88 0.38 0.587 0.253 1.097 0.593 1.53 1.02 0.427 0.433 0.767 0.943 1.02 1.53 0.253 0.587 0.38 1.213 0.38 1.88zM68.7-21.19h-12.4v5.83h12.4zM104.52-21.19v16.38c0 0.667-0.127 1.293-0.38 1.88-0.253 0.587-0.597 1.097-1.03 1.53-0.427 0.427-0.933 0.767-1.52 1.02-0.587 0.253-1.213 0.38-1.88 0.38v0h-13.41c-0.647 0-1.263-0.127-1.85-0.38-0.587-0.253-1.097-0.593-1.53-1.02-0.427-0.433-0.767-0.943-1.02-1.53-0.253-0.587-0.38-1.213-0.38-1.88v0-31.2h4.78v14.6c0.033-0.633 0.18-1.233 0.44-1.8 0.26-0.56 0.607-1.047 1.04-1.46 0.433-0.413 0.933-0.74 1.5-0.98 0.573-0.233 1.183-0.35 1.83-0.35v0h8.6c0.667 0 1.293 0.127 1.88 0.38 0.587 0.253 1.093 0.593 1.52 1.02 0.433 0.433 0.777 0.943 1.03 1.53 0.253 0.587 0.38 1.213 0.38 1.88zM99.71-21.19h-13.41v16.38h13.41zM138.5-35.01h5.01l13.5 35.01h-5.01l-3.1-8.06h-15.79l-3.11 8.06h-5zM141.02-28.49l-6.01 15.43h11.96zM185.52-21.19v16.38c0 0.667-0.127 1.293-0.38 1.88-0.247 0.587-0.587 1.097-1.02 1.53-0.433 0.427-0.943 0.767-1.53 1.02-0.587 0.253-1.213 0.38-1.88 0.38v0h-13.4v10.5h-4.79v-36.5h4.79v4.39c0.047-0.613 0.21-1.187 0.49-1.72 0.273-0.527 0.623-0.99 1.05-1.39 0.42-0.4 0.91-0.713 1.47-0.94 0.567-0.227 1.167-0.34 1.8-0.34v0h8.59c0.667 0 1.293 0.127 1.88 0.38 0.587 0.253 1.097 0.593 1.53 1.02 0.433 0.433 0.773 0.943 1.02 1.53 0.253 0.587 0.38 1.213 0.38 1.88zM167.31-4.81h13.4v-16.38h-13.4zM216.53-21.19v16.38c0 0.667-0.127 1.293-0.38 1.88-0.253 0.587-0.597 1.097-1.03 1.53-0.427 0.427-0.933 0.767-1.52 1.02-0.587 0.253-1.213 0.38-1.88 0.38v0h-13.4v10.5h-4.79v-36.5h4.79v4.39c0.047-0.613 0.207-1.187 0.48-1.72 0.28-0.527 0.63-0.99 1.05-1.39 0.427-0.4 0.92-0.713 1.48-0.94 0.56-0.227 1.16-0.34 1.8-0.34v0h8.59c0.667 0 1.293 0.127 1.88 0.38 0.587 0.253 1.093 0.593 1.52 1.02 0.433 0.433 0.777 0.943 1.03 1.53 0.253 0.587 0.38 1.213 0.38 1.88zM198.32-4.81h13.4v-16.38h-13.4z" fill="#000000" fill-rule="nonzero" stroke="none" stroke-width="1" stroke-linecap="butt" stroke-linejoin="miter" stroke-miterlimit="10" stroke-dasharray="" stroke-dashoffset="0" font-family="none" font-weight="none" font-size="none" text-anchor="none" style="mix-blend-mode: normal" data-fill-palette-color="secondary" opacity="1"></path></g></svg></g></svg></g></svg></g></svg></g><g><svg viewBox="0 0 121.47408000000001 121.47408000000001" height="121.47408000000001" width="121.47408000000001"><g><svg></svg></g><g id="icon-0"><svg viewBox="0 0 121.47408000000001 121.47408000000001" height="121.47408000000001" width="121.47408000000001"><g><rect width="110.45143200000001" height="110.45143200000001" x="5.511324000000002" y="5.511324000000002" fill="#045a0e" data-fill-palette-color="accent"></rect><rect width="110.45143200000001" height="110.45143200000001" x="11.022648000000002" y="1.7763568394002505e-15" fill="#045a0e" opacity="0.5" data-fill-palette-color="accent"></rect></g><g transform="matrix(1,0,0,1,15.74664,19.64171796363636)"><svg viewBox="0 0 89.98080000000002 82.1906440727273" height="82.1906440727273" width="89.98080000000002"><g><svg xmlns="http://www.w3.org/2000/svg" xml:space="preserve" viewBox="1 3.857 66 60.286" x="0" y="0" height="82.1906440727273" width="89.98080000000002" class="icon-dxe-0" data-fill-palette-color="quaternary" id="dxe-0"><path d="M1 63.143a1 1 0 0 0 1 1h64a1 1 0 1 0 0-2H48.466l3.825-11.475c0.143-0.414 0.215-0.823 0.215-1.21l0.06-10.101a1 1 0 0 0-0.09-0.42c-0.785-1.727-2.374-3.546-5.524-3.166V4.857a1 1 0 0 0-1-1h-28.55a1 1 0 0 0-1 1V37.49a3.37 3.37 0 0 0-0.038 3.456l12.437 21.196H2a1 1 0 0 0-1 1M44.952 5.857V33.83c-1.014-0.523-2.353-0.619-4.107-0.23-0.888-1.276-2.874-2.079-5.383-1.256l0.004-0.358c2.386-1.326 3.906-3.797 3.906-6.49v-7.22c0-4.114-3.438-7.509-7.76-7.509-4.279 0-7.76 3.37-7.76 7.51v7.22c0 2.68 1.435 5.074 3.768 6.414l-0.013 5.186h-5.652l-0.16-0.19a3.38 3.38 0 0 0-3.393-0.945V5.857z m-21.317 33.24h3.968l-0.012 4.71z m4.011-17.74l-0.02 8.113a5.34 5.34 0 0 1-1.774-3.973v-7.22c0-3.038 2.584-5.51 5.76-5.51 3.213 0 5.76 2.493 5.76 5.51v7.22c0 1.563-0.708 3.03-1.88 4.057l0.084-8.14a3.964 3.964 0 0 0-3.97-4.013c-2.17 0-3.946 1.773-3.96 3.957m3.263 40.429L18.092 39.939a1.41 1.41 0 0 1 0.223-1.693c0.59-0.577 1.504-0.519 1.986-0.012l6.85 8.16c0.371 0.454 0.968 0.622 1.522 0.422a1.36 1.36 0 0 0 0.914-1.292l0.06-24.157A1.976 1.976 0 0 1 31.62 19.4c1.1 0.008 1.97 0.904 1.956 1.99-0.09 11.302-0.152 7.557-0.057 18.853a1 1 0 1 0 2 0v-5.756c1.334-0.596 3.26-0.76 3.794 0.477v6.14a1 1 0 1 0 2 0v-5.56c3.713-0.81 3.297 1.055 3.644 1.856v6.016a1 1 0 1 0 2 0v-5.631c1.719-0.285 2.857 0.281 3.608 1.788l-0.058 9.878q0 0.254-0.11 0.573l-4.039 12.118z" fill="#ffa96a" data-fill-palette-color="quaternary"></path></svg></g></svg></g></svg></g></svg></g></svg></g></svg></g></svg></g><defs></defs></svg><rect width="448" height="360" fill="none" stroke="none" visibility="hidden"></rect></g></svg></g></svg>